# xmcd
#
# Track frame offsets: 
#        183
#        25580
#        42873
#        65248
#        82193
#        102180
#        116655
#        136965
#        152820
#        177658
#
# Disc length: 2583 seconds
#
# Revision: 2
# Processed by: cddbd v1.5.2PL0 Copyright (c) Steve Scherf et al.
# Submitted via: ExactAudioCopy v1.0b3
#
DISCID=890a150a
DTITLE=張國榮 - Dreaming
DYEAR=1990
DGENRE=Pop
TTITLE0=Dreaming
TTITLE1=Miss You Much
TTITLE2=想妳
TTITLE3=側面
TTITLE4=共同渡過
TTITLE5=無心睡眠
TTITLE6=風再起時
TTITLE7=暴風一族
TTITLE8=無需要太多
TTITLE9=拒絕再玩
EXTD=
EXTT0=
EXTT1=
EXTT2=
EXTT3=
EXTT4=
EXTT5=
EXTT6=
EXTT7=
EXTT8=
EXTT9=
PLAYORDER=
